{
  "accessors": [
    {
      "bufferView": 2,
      "componentType": 5126,
      "count": 3216,
      "max": [
        8.895901679992676,
        17.958934783935547,
        17.922544479370117
      ],
      "min": [
        -11.714615821838379,
        -30.655303955078125,
        -0.3015510141849518
      ],
      "type": "VEC3"
    },
    {
      "bufferView": 2,
      "byteOffset": 38592,
      "componentType": 5126,
      "count": 3216,
      "max": [
        0.9999991059303284,
        1.0,
        1.0
      ],
      "min": [
        -0.9999790191650391,
        -1.0,
        -0.9989020228385925
      ],
      "type": "VEC3"
    },
    {
      "bufferView": 1,
      "componentType": 5126,
      "count": 3216,
      "max": [
        0.9947180151939392,
        0.9955859780311584
      ],
      "min": [
        0.0036239998880773783,
        0.0057379999198019505
      ],
      "type": "VEC2"
    },
    {
      "bufferView": 0,
      "componentType": 5125,
      "count": 12147,
      "type": "SCALAR"
    },
    {
      "bufferView": 2,
      "byteOffset": 77184,
      "componentType": 5126,
      "count": 12537,
      "max": [
        11.667268753051758,
        27.899555206298828,
        18.28466033935547
      ],
      "min": [
        -9.560873985290527,
        -32.353084564208984,
        1.5019299983978271
      ],
      "type": "VEC3"
    },
    {
      "bufferView": 2,
      "byteOffset": 227628,
      "componentType": 5126,
      "count": 12537,
      "max": [
        0.9997591376304626,
        0.9999756217002869,
        0.999965250492096
      ],
      "min": [
        -0.999797523021698,
        -0.9999158978462219,
        -0.9999251365661621
      ],
      "type": "VEC3"
    },
    {
      "bufferView": 1,
      "byteOffset": 25728,
      "componentType": 5126,
      "count": 12537,
      "max": [
        0.9962700009346008,
        0.9936310052871704
      ],
      "min": [
        0.008031000383198261,
        0.00710699986666441
      ],
      "type": "VEC2"
    },
    {
      "bufferView": 0,
      "byteOffset": 48588,
      "componentType": 5125,
      "count": 43896,
      "type": "SCALAR"
    },
    {
      "bufferView": 2,
      "byteOffset": 378072,
      "componentType": 5126,
      "count": 2779,
      "max": [
        13.744370460510254,
        36.88666534423828,
        21.66046714782715
      ],
      "min": [
        -12.208108901977539,
        -35.39787292480469,
        -0.13781100511550903
      ],
      "type": "VEC3"
    },
    {
      "bufferView": 2,
      "byteOffset": 411420,
      "componentType": 5126,
      "count": 2779,
      "max": [
        0.9988144636154175,
        0.9994964003562927,
        0.9999996423721313
      ],
      "min": [
        -0.9978207349777222,
        -0.9972277879714966,
        -0.9971952438354492
      ],
      "type": "VEC3"
    },
    {
      "bufferView": 1,
      "byteOffset": 126024,
      "componentType": 5126,
      "count": 2779,
      "max": [
        0.9960579872131348,
        0.9895139932632446
      ],
      "min": [
        0.007410000078380108,
        0.005001000128686428
      ],
      "type": "VEC2"
    },
    {
      "bufferView": 0,
      "byteOffset": 224172,
      "componentType": 5125,
      "count": 13968,
      "type": "SCALAR"
    },
    {
      "bufferView": 2,
      "byteOffset": 444768,
      "componentType": 5126,
      "count": 1314,
      "max": [
        5.014854907989502,
        5.024853229522705,
        12.184663772583008
      ],
      "min": [
        -2.1572930812835693,
        -27.734086990356445,
        8.688804626464844
      ],
      "type": "VEC3"
    },
    {
      "bufferView": 2,
      "byteOffset": 460536,
      "componentType": 5126,
      "count": 1314,
      "max": [
        0.9873162508010864,
        0.9765502214431763,
        0.9808788895606995
      ],
      "min": [
        -0.987316370010376,
        -0.9765504598617554,
        -0.9959287643432617
      ],
      "type": "VEC3"
    },
    {
      "bufferView": 1,
      "byteOffset": 148256,
      "componentType": 5126,
      "count": 1314,
      "max": [
        0.9668170213699341,
        1.2192269563674927
      ],
      "min": [
        0.2503640055656433,
        0.5946279764175415
      ],
      "type": "VEC2"
    },
    {
      "bufferView": 0,
      "byteOffset": 280044,
      "componentType": 5125,
      "count": 1782,
      "type": "SCALAR"
    }
  ],
  "asset": {
    "extras": {
      "author": "bocharova (https://sketchfab.com/apsnu)",
      "license": "CC-BY-NC-4.0 (http://creativecommons.org/licenses/by-nc/4.0/)",
      "source": "https://sketchfab.com/3d-models/sands-location-f35b8eb1e72f42699ec34069489ac654",
      "title": "Sands Location"
    },
    "generator": "Sketchfab-12.68.0",
    "version": "2.0"
  },
  "bufferViews": [
    {
      "buffer": 0,
      "byteLength": 287172,
      "name": "floatBufferViews",
      "target": 34963
    },
    {
      "buffer": 0,
      "byteLength": 158768,
      "byteOffset": 287172,
      "byteStride": 8,
      "name": "floatBufferViews",
      "target": 34962
    },
    {
      "buffer": 0,
      "byteLength": 476304,
      "byteOffset": 445940,
      "byteStride": 12,
      "name": "floatBufferViews",
      "target": 34962
    }
  ],
  "buffers": [
    {
      "byteLength": 922244,
      "uri": "scene.bin"
    }
  ],
  "images": [
    {
      "uri": "textures/map_2_island1_baseColor.png"
    },
    {
      "uri": "textures/map_2_object1_baseColor.png"
    },
    {
      "uri": "textures/map_2_terrain1_baseColor.png"
    },
    {
      "uri": "textures/map_4lambert5SG_baseColor.png"
    },
    {
      "uri": "textures/map_4lambert5SG_emissive.png"
    }
  ],
  "materials": [
    {
      "alphaCutoff": 0.01,
      "alphaMode": "MASK",
      "doubleSided": true,
      "name": "map_2_island1",
      "pbrMetallicRoughness": {
        "baseColorTexture": {
          "index": 0
        },
        "metallicFactor": 0.0,
        "roughnessFactor": 0.6
      }
    },
    {
      "alphaCutoff": 0.01,
      "alphaMode": "MASK",
      "doubleSided": true,
      "name": "map_2_object1",
      "pbrMetallicRoughness": {
        "baseColorTexture": {
          "index": 1
        },
        "metallicFactor": 0.0,
        "roughnessFactor": 0.6
      }
    },
    {
      "doubleSided": true,
      "name": "map_2_terrain1",
      "pbrMetallicRoughness": {
        "baseColorTexture": {
          "index": 2
        },
        "metallicFactor": 0.0,
        "roughnessFactor": 0.6
      }
    },
    {
      "alphaMode": "BLEND",
      "doubleSided": true,
      "emissiveFactor": [
        1.0,
        1.0,
        1.0
      ],
      "emissiveTexture": {
        "index": 4
      },
      "name": "map_4lambert5SG",
      "pbrMetallicRoughness": {
        "baseColorTexture": {
          "index": 3
        },
        "metallicFactor": 0.0,
        "roughnessFactor": 0.6
      }
    }
  ],
  "meshes": [
    {
      "name": "Object_0",
      "primitives": [
        {
          "attributes": {
            "NORMAL": 1,
            "POSITION": 0,
            "TEXCOORD_0": 2
          },
          "indices": 3,
          "material": 0,
          "mode": 4
        }
      ]
    },
    {
      "name": "Object_1",
      "primitives": [
        {
          "attributes": {
            "NORMAL": 5,
            "POSITION": 4,
            "TEXCOORD_0": 6
          },
          "indices": 7,
          "material": 1,
          "mode": 4
        }
      ]
    },
    {
      "name": "Object_2",
      "primitives": [
        {
          "attributes": {
            "NORMAL": 9,
            "POSITION": 8,
            "TEXCOORD_0": 10
          },
          "indices": 11,
          "material": 2,
          "mode": 4
        }
      ]
    },
    {
      "name": "Object_3",
      "primitives": [
        {
          "attributes": {
            "NORMAL": 13,
            "POSITION": 12,
            "TEXCOORD_0": 14
          },
          "indices": 15,
          "material": 3,
          "mode": 4
        }
      ]
    }
  ],
  "nodes": [
    {
      "children": [
        1
      ],
      "matrix": [
        1.1392714977264404,
        0.0,
        0.0,
        0.0,
        0.0,
        2.5296908961501617e-16,
        -1.1392714977264404,
        0.0,
        0.0,
        1.1392714977264404,
        2.5296908961501617e-16,
        0.0,
        0.0,
        0.0,
        0.0,
        1.0
      ],
      "name": "Sketchfab_model"
    },
    {
      "children": [
        2,
        3,
        4,
        5
      ],
      "name": "sands location.obj.cleaner"
    },
    {
      "mesh": 0,
      "name": "Object_2"
    },
    {
      "mesh": 1,
      "name": "Object_3"
    },
    {
      "mesh": 2,
      "name": "Object_4"
    },
    {
      "mesh": 3,
      "name": "Object_5"
    }
  ],
  "samplers": [
    {
      "magFilter": 9729,
      "minFilter": 9987,
      "wrapS": 10497,
      "wrapT": 10497
    }
  ],
  "scene": 0,
  "scenes": [
    {
      "name": "Sketchfab_Scene",
      "nodes": [
        0
      ]
    }
  ],
  "textures": [
    {
      "sampler": 0,
      "source": 0
    },
    {
      "sampler": 0,
      "source": 1
    },
    {
      "sampler": 0,
      "source": 2
    },
    {
      "sampler": 0,
      "source": 3
    },
    {
      "sampler": 0,
      "source": 4
    }
  ]
}
